# xmcd CD database file
#
# Track frame offsets:
#	150
#	25623
#	46500
#	63746
#	76748
#	91377
#	107734
#	126925
#	143660
#	155912
#	178036
#	199247
#
# Disc length: 2855 seconds
#
# Revision: 2
# Processed by: cddbd v1.5.1PL0 Copyright (c) Steve Scherf et al.
# Submitted via: CDex 1.60beta1
#
DISCID=9c0b250c
DTITLE=Aether - Essence -Music of Mana-
DYEAR=2005
DGENRE=Soundtrack
TTITLE0=子午線の祀り
TTITLE1=果てしなき戦場
TTITLE2=少年は荒野をめざす
TTITLE3=パストラール
TTITLE4=風歌う、その旅路
TTITLE5=予感
TTITLE6=The Sacrifice Part III
TTITLE7=Strange Medicine
TTITLE8=ダンジョン2
TTITLE9=Harvest November
TTITLE10=Powell
TTITLE11=マナの神殿
EXTD=YEAR: 2005
EXTT0=
EXTT1=
EXTT2=
EXTT3=
EXTT4=
EXTT5=
EXTT6=
EXTT7=
EXTT8=
EXTT9=
EXTT10=
EXTT11=
PLAYORDER=
